<mxfile host="app.diagrams.net" modified="2020-06-02T13:26:16.254Z" agent="5.0 (Macintosh; Intel Mac OS X 10_14_6) AppleWebKit/537.36 (KHTML, like Gecko) Chrome/83.0.4103.61 Safari/537.36" etag="9ax4Asz2xH_46c4ovyoy" version="13.1.11" type="github">
  <diagram id="LtdNEPkijhUZQp1AGoqe" name="Page-1">
    <mxGraphModel dx="3199" dy="1390" grid="1" gridSize="10" guides="1" tooltips="1" connect="1" arrows="1" fold="1" page="1" pageScale="1" pageWidth="827" pageHeight="1169" math="0" shadow="0">
      <root>
        <mxCell id="0" />
        <mxCell id="1" parent="0" />
        <mxCell id="LM0uR2DWNkc85pl8UlRV-162" value="" style="rounded=0;whiteSpace=wrap;html=1;" parent="1" vertex="1">
          <mxGeometry x="191.25" y="1679" width="212.5" height="71" as="geometry" />
        </mxCell>
        <mxCell id="LM0uR2DWNkc85pl8UlRV-13" value="" style="rounded=0;whiteSpace=wrap;html=1;" parent="1" vertex="1">
          <mxGeometry x="50" y="715" width="120" height="335" as="geometry" />
        </mxCell>
        <mxCell id="LM0uR2DWNkc85pl8UlRV-15" value="Kafka" style="rounded=0;whiteSpace=wrap;html=1;direction=east;" parent="1" vertex="1">
          <mxGeometry x="60" y="982" width="100" height="40" as="geometry" />
        </mxCell>
        <mxCell id="LM0uR2DWNkc85pl8UlRV-16" value="FTP" style="rounded=0;whiteSpace=wrap;html=1;direction=east;" parent="1" vertex="1">
          <mxGeometry x="60" y="795" width="100" height="40" as="geometry" />
        </mxCell>
        <mxCell id="LM0uR2DWNkc85pl8UlRV-17" value="平台共享" style="rounded=0;whiteSpace=wrap;html=1;direction=east;" parent="1" vertex="1">
          <mxGeometry x="60" y="889.5" width="100" height="40" as="geometry" />
        </mxCell>
        <mxCell id="LM0uR2DWNkc85pl8UlRV-18" value="数据接入平台" style="text;html=1;align=center;verticalAlign=middle;resizable=0;points=[];autosize=1;" parent="1" vertex="1">
          <mxGeometry x="65" y="745" width="90" height="20" as="geometry" />
        </mxCell>
        <mxCell id="LM0uR2DWNkc85pl8UlRV-20" value="" style="shape=flexArrow;endArrow=classic;html=1;entryX=0;entryY=0.5;entryDx=0;entryDy=0;" parent="1" target="LM0uR2DWNkc85pl8UlRV-13" edge="1">
          <mxGeometry width="50" height="50" relative="1" as="geometry">
            <mxPoint x="-30" y="883" as="sourcePoint" />
            <mxPoint x="540" y="760" as="targetPoint" />
          </mxGeometry>
        </mxCell>
        <mxCell id="LM0uR2DWNkc85pl8UlRV-21" value="" style="shape=flexArrow;endArrow=classic;html=1;exitX=1;exitY=0.5;exitDx=0;exitDy=0;" parent="1" source="LM0uR2DWNkc85pl8UlRV-15" edge="1">
          <mxGeometry width="50" height="50" relative="1" as="geometry">
            <mxPoint x="171" y="1038" as="sourcePoint" />
            <mxPoint x="408" y="1003" as="targetPoint" />
          </mxGeometry>
        </mxCell>
        <mxCell id="LM0uR2DWNkc85pl8UlRV-23" value="" style="rounded=0;whiteSpace=wrap;html=1;direction=east;" parent="1" vertex="1">
          <mxGeometry x="227" y="745" width="141" height="220" as="geometry" />
        </mxCell>
        <mxCell id="LM0uR2DWNkc85pl8UlRV-24" value="视图分析&lt;br&gt;" style="text;html=1;align=center;verticalAlign=middle;resizable=0;points=[];autosize=1;direction=east;" parent="1" vertex="1">
          <mxGeometry x="267.5" y="753" width="60" height="20" as="geometry" />
        </mxCell>
        <mxCell id="LM0uR2DWNkc85pl8UlRV-25" value="" style="rounded=0;whiteSpace=wrap;html=1;" parent="1" vertex="1">
          <mxGeometry x="410" y="720" width="120" height="330" as="geometry" />
        </mxCell>
        <mxCell id="LM0uR2DWNkc85pl8UlRV-26" value="视频&lt;br&gt;结构化" style="rounded=0;whiteSpace=wrap;html=1;direction=east;" parent="1" vertex="1">
          <mxGeometry x="230" y="780" width="70" height="50" as="geometry" />
        </mxCell>
        <mxCell id="LM0uR2DWNkc85pl8UlRV-27" value="人脸识别" style="rounded=0;whiteSpace=wrap;html=1;direction=east;" parent="1" vertex="1">
          <mxGeometry x="302" y="780" width="60" height="50" as="geometry" />
        </mxCell>
        <mxCell id="LM0uR2DWNkc85pl8UlRV-28" value="车辆二次识别" style="rounded=0;whiteSpace=wrap;html=1;direction=east;" parent="1" vertex="1">
          <mxGeometry x="235" y="840" width="60" height="50" as="geometry" />
        </mxCell>
        <mxCell id="LM0uR2DWNkc85pl8UlRV-30" value="步态识别" style="rounded=0;whiteSpace=wrap;html=1;direction=east;" parent="1" vertex="1">
          <mxGeometry x="302" y="840" width="60" height="50" as="geometry" />
        </mxCell>
        <mxCell id="LM0uR2DWNkc85pl8UlRV-31" value="人群分析" style="rounded=0;whiteSpace=wrap;html=1;direction=east;" parent="1" vertex="1">
          <mxGeometry x="235" y="900" width="60" height="50" as="geometry" />
        </mxCell>
        <mxCell id="LM0uR2DWNkc85pl8UlRV-32" value="。。。" style="rounded=0;whiteSpace=wrap;html=1;direction=east;" parent="1" vertex="1">
          <mxGeometry x="302" y="900" width="60" height="50" as="geometry" />
        </mxCell>
        <mxCell id="LM0uR2DWNkc85pl8UlRV-35" value="" style="shape=flexArrow;endArrow=classic;html=1;entryX=0;entryY=0.25;entryDx=0;entryDy=0;exitX=1;exitY=0.5;exitDx=0;exitDy=0;" parent="1" source="LM0uR2DWNkc85pl8UlRV-16" edge="1">
          <mxGeometry width="50" height="50" relative="1" as="geometry">
            <mxPoint x="170" y="900" as="sourcePoint" />
            <mxPoint x="227" y="815" as="targetPoint" />
          </mxGeometry>
        </mxCell>
        <mxCell id="LM0uR2DWNkc85pl8UlRV-36" value="" style="shape=flexArrow;endArrow=classic;html=1;exitX=1;exitY=0.5;exitDx=0;exitDy=0;entryX=1;entryY=0.5;entryDx=0;entryDy=0;" parent="1" source="LM0uR2DWNkc85pl8UlRV-23" edge="1">
          <mxGeometry width="50" height="50" relative="1" as="geometry">
            <mxPoint x="437" y="886" as="sourcePoint" />
            <mxPoint x="410" y="855" as="targetPoint" />
          </mxGeometry>
        </mxCell>
        <mxCell id="LM0uR2DWNkc85pl8UlRV-37" value="结构化文本数据" style="text;html=1;align=center;verticalAlign=middle;resizable=0;points=[];autosize=1;direction=east;" parent="1" vertex="1">
          <mxGeometry x="240" y="975" width="100" height="20" as="geometry" />
        </mxCell>
        <mxCell id="LM0uR2DWNkc85pl8UlRV-38" value="视&lt;br&gt;频&lt;br&gt;流" style="text;html=1;align=center;verticalAlign=middle;resizable=0;points=[];autosize=1;direction=east;" parent="1" vertex="1">
          <mxGeometry x="180" y="884.5" width="30" height="50" as="geometry" />
        </mxCell>
        <mxCell id="LM0uR2DWNkc85pl8UlRV-39" value="视&lt;br&gt;频&lt;br&gt;图&lt;br&gt;像" style="text;html=1;align=center;verticalAlign=middle;resizable=0;points=[];autosize=1;direction=east;" parent="1" vertex="1">
          <mxGeometry x="180" y="784" width="30" height="60" as="geometry" />
        </mxCell>
        <mxCell id="LM0uR2DWNkc85pl8UlRV-41" value="" style="shape=flexArrow;endArrow=classic;html=1;entryX=0;entryY=0.591;entryDx=0;entryDy=0;exitX=1;exitY=0.5;exitDx=0;exitDy=0;entryPerimeter=0;" parent="1" source="LM0uR2DWNkc85pl8UlRV-17" edge="1">
          <mxGeometry width="50" height="50" relative="1" as="geometry">
            <mxPoint x="170" y="844.5" as="sourcePoint" />
            <mxPoint x="227" y="909.52" as="targetPoint" />
          </mxGeometry>
        </mxCell>
        <mxCell id="LM0uR2DWNkc85pl8UlRV-45" value="数据治理" style="text;html=1;align=center;verticalAlign=middle;resizable=0;points=[];autosize=1;" parent="1" vertex="1">
          <mxGeometry x="440" y="740" width="60" height="20" as="geometry" />
        </mxCell>
        <mxCell id="LM0uR2DWNkc85pl8UlRV-48" value="数据清洗" style="rounded=0;whiteSpace=wrap;html=1;" parent="1" vertex="1">
          <mxGeometry x="430" y="770" width="80" height="30" as="geometry" />
        </mxCell>
        <mxCell id="LM0uR2DWNkc85pl8UlRV-49" value="数据关联" style="rounded=0;whiteSpace=wrap;html=1;" parent="1" vertex="1">
          <mxGeometry x="430" y="829" width="80" height="30" as="geometry" />
        </mxCell>
        <mxCell id="LM0uR2DWNkc85pl8UlRV-51" value="数据比对" style="rounded=0;whiteSpace=wrap;html=1;" parent="1" vertex="1">
          <mxGeometry x="430" y="887" width="80" height="30" as="geometry" />
        </mxCell>
        <mxCell id="LM0uR2DWNkc85pl8UlRV-52" value="数据标识" style="rounded=0;whiteSpace=wrap;html=1;" parent="1" vertex="1">
          <mxGeometry x="430" y="945" width="80" height="30" as="geometry" />
        </mxCell>
        <mxCell id="LM0uR2DWNkc85pl8UlRV-59" value="数据缓存（原始库）" style="shape=cylinder;whiteSpace=wrap;html=1;boundedLbl=1;backgroundOutline=1;" parent="1" vertex="1">
          <mxGeometry x="425" y="1101" width="296" height="60" as="geometry" />
        </mxCell>
        <mxCell id="LM0uR2DWNkc85pl8UlRV-62" value="" style="rounded=0;whiteSpace=wrap;html=1;" parent="1" vertex="1">
          <mxGeometry x="622" y="720" width="120" height="330" as="geometry" />
        </mxCell>
        <mxCell id="LM0uR2DWNkc85pl8UlRV-63" value="数据服务" style="text;html=1;align=center;verticalAlign=middle;resizable=0;points=[];autosize=1;" parent="1" vertex="1">
          <mxGeometry x="652" y="740" width="60" height="20" as="geometry" />
        </mxCell>
        <mxCell id="LM0uR2DWNkc85pl8UlRV-64" value="" style="shape=flexArrow;endArrow=classic;startArrow=classic;html=1;entryX=0.5;entryY=1;entryDx=0;entryDy=0;exitX=0.15;exitY=0.05;exitDx=0;exitDy=0;exitPerimeter=0;" parent="1" source="LM0uR2DWNkc85pl8UlRV-59" target="LM0uR2DWNkc85pl8UlRV-25" edge="1">
          <mxGeometry width="50" height="50" relative="1" as="geometry">
            <mxPoint x="340" y="1200" as="sourcePoint" />
            <mxPoint x="390" y="1150" as="targetPoint" />
          </mxGeometry>
        </mxCell>
        <mxCell id="LM0uR2DWNkc85pl8UlRV-65" value="" style="shape=flexArrow;endArrow=classic;startArrow=classic;html=1;exitX=0.85;exitY=0.05;exitDx=0;exitDy=0;exitPerimeter=0;" parent="1" source="LM0uR2DWNkc85pl8UlRV-59" target="LM0uR2DWNkc85pl8UlRV-62" edge="1">
          <mxGeometry width="50" height="50" relative="1" as="geometry">
            <mxPoint x="670" y="1090" as="sourcePoint" />
            <mxPoint x="720" y="1040" as="targetPoint" />
          </mxGeometry>
        </mxCell>
        <mxCell id="LM0uR2DWNkc85pl8UlRV-67" value="数据检索" style="rounded=0;whiteSpace=wrap;html=1;" parent="1" vertex="1">
          <mxGeometry x="642" y="770" width="80" height="30" as="geometry" />
        </mxCell>
        <mxCell id="LM0uR2DWNkc85pl8UlRV-68" value="模型分析" style="rounded=0;whiteSpace=wrap;html=1;" parent="1" vertex="1">
          <mxGeometry x="642" y="828" width="80" height="30" as="geometry" />
        </mxCell>
        <mxCell id="LM0uR2DWNkc85pl8UlRV-69" value="数据操作" style="rounded=0;whiteSpace=wrap;html=1;" parent="1" vertex="1">
          <mxGeometry x="642" y="887" width="80" height="30" as="geometry" />
        </mxCell>
        <mxCell id="LM0uR2DWNkc85pl8UlRV-70" value="数据管理" style="rounded=0;whiteSpace=wrap;html=1;" parent="1" vertex="1">
          <mxGeometry x="642" y="945" width="80" height="30" as="geometry" />
        </mxCell>
        <mxCell id="LM0uR2DWNkc85pl8UlRV-71" value="" style="endArrow=none;html=1;dashed=1;" parent="1" edge="1">
          <mxGeometry width="50" height="50" relative="1" as="geometry">
            <mxPoint x="770" y="1670" as="sourcePoint" />
            <mxPoint x="770" y="692" as="targetPoint" />
          </mxGeometry>
        </mxCell>
        <mxCell id="LM0uR2DWNkc85pl8UlRV-72" value="" style="shape=flexArrow;endArrow=classic;html=1;exitX=1;exitY=0.5;exitDx=0;exitDy=0;entryX=0;entryY=0.5;entryDx=0;entryDy=0;" parent="1" source="LM0uR2DWNkc85pl8UlRV-62" target="LM0uR2DWNkc85pl8UlRV-73" edge="1">
          <mxGeometry width="50" height="50" relative="1" as="geometry">
            <mxPoint x="790" y="920" as="sourcePoint" />
            <mxPoint x="800" y="885" as="targetPoint" />
          </mxGeometry>
        </mxCell>
        <mxCell id="LM0uR2DWNkc85pl8UlRV-73" value="&lt;font style=&quot;font-size: 14px&quot;&gt;公&lt;br&gt;安&lt;br&gt;网&lt;br&gt;大&lt;br&gt;数&lt;br&gt;据&lt;br&gt;中&lt;br&gt;心&lt;/font&gt;" style="rounded=0;whiteSpace=wrap;html=1;" parent="1" vertex="1">
          <mxGeometry x="800" y="720" width="60" height="330" as="geometry" />
        </mxCell>
        <mxCell id="LM0uR2DWNkc85pl8UlRV-113" value="" style="rounded=0;whiteSpace=wrap;html=1;" parent="1" vertex="1">
          <mxGeometry x="50" y="1220" width="120" height="420" as="geometry" />
        </mxCell>
        <mxCell id="LM0uR2DWNkc85pl8UlRV-114" value="设备" style="rounded=0;whiteSpace=wrap;html=1;" parent="1" vertex="1">
          <mxGeometry x="-130" y="1220" width="100" height="420" as="geometry" />
        </mxCell>
        <mxCell id="LM0uR2DWNkc85pl8UlRV-115" value="Kafka" style="rounded=0;whiteSpace=wrap;html=1;" parent="1" vertex="1">
          <mxGeometry x="60" y="1270" width="100" height="40" as="geometry" />
        </mxCell>
        <mxCell id="LM0uR2DWNkc85pl8UlRV-116" value="FTP" style="rounded=0;whiteSpace=wrap;html=1;" parent="1" vertex="1">
          <mxGeometry x="60" y="1385" width="100" height="40" as="geometry" />
        </mxCell>
        <mxCell id="LM0uR2DWNkc85pl8UlRV-117" value="平台共享" style="rounded=0;whiteSpace=wrap;html=1;" parent="1" vertex="1">
          <mxGeometry x="60" y="1460" width="100" height="40" as="geometry" />
        </mxCell>
        <mxCell id="LM0uR2DWNkc85pl8UlRV-118" value="数据接入平台" style="text;html=1;align=center;verticalAlign=middle;resizable=0;points=[];autosize=1;" parent="1" vertex="1">
          <mxGeometry x="65" y="1240" width="90" height="20" as="geometry" />
        </mxCell>
        <mxCell id="LM0uR2DWNkc85pl8UlRV-119" value="" style="shape=flexArrow;endArrow=classic;html=1;exitX=1;exitY=0.5;exitDx=0;exitDy=0;entryX=0;entryY=0.5;entryDx=0;entryDy=0;" parent="1" source="LM0uR2DWNkc85pl8UlRV-114" target="LM0uR2DWNkc85pl8UlRV-113" edge="1">
          <mxGeometry width="50" height="50" relative="1" as="geometry">
            <mxPoint x="490" y="1310" as="sourcePoint" />
            <mxPoint x="540" y="1260" as="targetPoint" />
          </mxGeometry>
        </mxCell>
        <mxCell id="LM0uR2DWNkc85pl8UlRV-120" value="" style="shape=flexArrow;endArrow=classic;html=1;entryX=0;entryY=0.218;entryDx=0;entryDy=0;exitX=1;exitY=0.5;exitDx=0;exitDy=0;entryPerimeter=0;" parent="1" source="LM0uR2DWNkc85pl8UlRV-115" target="LM0uR2DWNkc85pl8UlRV-124" edge="1">
          <mxGeometry width="50" height="50" relative="1" as="geometry">
            <mxPoint x="171" y="1323" as="sourcePoint" />
            <mxPoint x="440" y="1360" as="targetPoint" />
          </mxGeometry>
        </mxCell>
        <mxCell id="LM0uR2DWNkc85pl8UlRV-122" value="" style="rounded=0;whiteSpace=wrap;html=1;" parent="1" vertex="1">
          <mxGeometry x="227" y="1350" width="141" height="220" as="geometry" />
        </mxCell>
        <mxCell id="LM0uR2DWNkc85pl8UlRV-123" value="视图分析&lt;br&gt;" style="text;html=1;align=center;verticalAlign=middle;resizable=0;points=[];autosize=1;" parent="1" vertex="1">
          <mxGeometry x="267.5" y="1358" width="60" height="20" as="geometry" />
        </mxCell>
        <mxCell id="LM0uR2DWNkc85pl8UlRV-124" value="" style="rounded=0;whiteSpace=wrap;html=1;" parent="1" vertex="1">
          <mxGeometry x="410" y="1220" width="120" height="330" as="geometry" />
        </mxCell>
        <mxCell id="LM0uR2DWNkc85pl8UlRV-125" value="视频&lt;br&gt;结构化" style="rounded=0;whiteSpace=wrap;html=1;" parent="1" vertex="1">
          <mxGeometry x="235" y="1385" width="60" height="50" as="geometry" />
        </mxCell>
        <mxCell id="LM0uR2DWNkc85pl8UlRV-126" value="人脸识别" style="rounded=0;whiteSpace=wrap;html=1;" parent="1" vertex="1">
          <mxGeometry x="302" y="1385" width="60" height="50" as="geometry" />
        </mxCell>
        <mxCell id="LM0uR2DWNkc85pl8UlRV-127" value="车辆二次识别" style="rounded=0;whiteSpace=wrap;html=1;" parent="1" vertex="1">
          <mxGeometry x="235" y="1445" width="60" height="50" as="geometry" />
        </mxCell>
        <mxCell id="LM0uR2DWNkc85pl8UlRV-128" value="步态识别" style="rounded=0;whiteSpace=wrap;html=1;" parent="1" vertex="1">
          <mxGeometry x="302" y="1445" width="60" height="50" as="geometry" />
        </mxCell>
        <mxCell id="LM0uR2DWNkc85pl8UlRV-129" value="人群分析" style="rounded=0;whiteSpace=wrap;html=1;" parent="1" vertex="1">
          <mxGeometry x="235" y="1505" width="60" height="50" as="geometry" />
        </mxCell>
        <mxCell id="LM0uR2DWNkc85pl8UlRV-130" value="。。。" style="rounded=0;whiteSpace=wrap;html=1;" parent="1" vertex="1">
          <mxGeometry x="302" y="1505" width="60" height="50" as="geometry" />
        </mxCell>
        <mxCell id="LM0uR2DWNkc85pl8UlRV-131" value="" style="shape=flexArrow;endArrow=classic;html=1;entryX=0;entryY=0.25;entryDx=0;entryDy=0;exitX=1;exitY=0.5;exitDx=0;exitDy=0;" parent="1" source="LM0uR2DWNkc85pl8UlRV-116" target="LM0uR2DWNkc85pl8UlRV-122" edge="1">
          <mxGeometry width="50" height="50" relative="1" as="geometry">
            <mxPoint x="170" y="1490" as="sourcePoint" />
            <mxPoint x="540" y="1230" as="targetPoint" />
          </mxGeometry>
        </mxCell>
        <mxCell id="LM0uR2DWNkc85pl8UlRV-132" value="" style="shape=flexArrow;endArrow=classic;html=1;exitX=1;exitY=0.5;exitDx=0;exitDy=0;" parent="1" source="LM0uR2DWNkc85pl8UlRV-122" edge="1">
          <mxGeometry width="50" height="50" relative="1" as="geometry">
            <mxPoint x="437" y="1491" as="sourcePoint" />
            <mxPoint x="410" y="1460" as="targetPoint" />
          </mxGeometry>
        </mxCell>
        <mxCell id="LM0uR2DWNkc85pl8UlRV-133" value="结构化文本数据" style="text;html=1;align=center;verticalAlign=middle;resizable=0;points=[];autosize=1;" parent="1" vertex="1">
          <mxGeometry x="240" y="1260" width="100" height="20" as="geometry" />
        </mxCell>
        <mxCell id="LM0uR2DWNkc85pl8UlRV-134" value="视&lt;br&gt;频&lt;br&gt;流" style="text;html=1;align=center;verticalAlign=middle;resizable=0;points=[];autosize=1;" parent="1" vertex="1">
          <mxGeometry x="180" y="1445" width="30" height="50" as="geometry" />
        </mxCell>
        <mxCell id="LM0uR2DWNkc85pl8UlRV-135" value="视&lt;br&gt;频&lt;br&gt;图&lt;br&gt;像" style="text;html=1;align=center;verticalAlign=middle;resizable=0;points=[];autosize=1;" parent="1" vertex="1">
          <mxGeometry x="180" y="1365" width="30" height="60" as="geometry" />
        </mxCell>
        <mxCell id="LM0uR2DWNkc85pl8UlRV-136" value="" style="shape=flexArrow;endArrow=classic;html=1;entryX=0;entryY=0.591;entryDx=0;entryDy=0;exitX=1;exitY=0.5;exitDx=0;exitDy=0;entryPerimeter=0;" parent="1" source="LM0uR2DWNkc85pl8UlRV-117" target="LM0uR2DWNkc85pl8UlRV-122" edge="1">
          <mxGeometry width="50" height="50" relative="1" as="geometry">
            <mxPoint x="170" y="1415" as="sourcePoint" />
            <mxPoint x="239" y="1415" as="targetPoint" />
          </mxGeometry>
        </mxCell>
        <mxCell id="LM0uR2DWNkc85pl8UlRV-137" value="数据治理" style="text;html=1;align=center;verticalAlign=middle;resizable=0;points=[];autosize=1;" parent="1" vertex="1">
          <mxGeometry x="440" y="1240" width="60" height="20" as="geometry" />
        </mxCell>
        <mxCell id="LM0uR2DWNkc85pl8UlRV-138" value="数据清洗" style="rounded=0;whiteSpace=wrap;html=1;" parent="1" vertex="1">
          <mxGeometry x="430" y="1270" width="80" height="30" as="geometry" />
        </mxCell>
        <mxCell id="LM0uR2DWNkc85pl8UlRV-139" value="数据关联" style="rounded=0;whiteSpace=wrap;html=1;" parent="1" vertex="1">
          <mxGeometry x="430" y="1329" width="80" height="30" as="geometry" />
        </mxCell>
        <mxCell id="LM0uR2DWNkc85pl8UlRV-140" value="数据比对" style="rounded=0;whiteSpace=wrap;html=1;" parent="1" vertex="1">
          <mxGeometry x="430" y="1387" width="80" height="30" as="geometry" />
        </mxCell>
        <mxCell id="LM0uR2DWNkc85pl8UlRV-141" value="数据标识" style="rounded=0;whiteSpace=wrap;html=1;" parent="1" vertex="1">
          <mxGeometry x="430" y="1445" width="80" height="30" as="geometry" />
        </mxCell>
        <mxCell id="LM0uR2DWNkc85pl8UlRV-142" value="数据缓存（原始库）" style="shape=cylinder;whiteSpace=wrap;html=1;boundedLbl=1;backgroundOutline=1;dashed=1;" parent="1" vertex="1">
          <mxGeometry x="425" y="1601" width="296" height="60" as="geometry" />
        </mxCell>
        <mxCell id="LM0uR2DWNkc85pl8UlRV-143" value="" style="rounded=0;whiteSpace=wrap;html=1;" parent="1" vertex="1">
          <mxGeometry x="622" y="1220" width="120" height="330" as="geometry" />
        </mxCell>
        <mxCell id="LM0uR2DWNkc85pl8UlRV-144" value="数据服务" style="text;html=1;align=center;verticalAlign=middle;resizable=0;points=[];autosize=1;" parent="1" vertex="1">
          <mxGeometry x="652" y="1240" width="60" height="20" as="geometry" />
        </mxCell>
        <mxCell id="LM0uR2DWNkc85pl8UlRV-145" value="" style="shape=flexArrow;endArrow=classic;startArrow=classic;html=1;entryX=0.5;entryY=1;entryDx=0;entryDy=0;exitX=0.15;exitY=0.05;exitDx=0;exitDy=0;exitPerimeter=0;" parent="1" source="LM0uR2DWNkc85pl8UlRV-142" target="LM0uR2DWNkc85pl8UlRV-124" edge="1">
          <mxGeometry width="50" height="50" relative="1" as="geometry">
            <mxPoint x="340" y="1700" as="sourcePoint" />
            <mxPoint x="390" y="1650" as="targetPoint" />
          </mxGeometry>
        </mxCell>
        <mxCell id="LM0uR2DWNkc85pl8UlRV-146" value="" style="shape=flexArrow;endArrow=classic;startArrow=classic;html=1;exitX=0.85;exitY=0.05;exitDx=0;exitDy=0;exitPerimeter=0;" parent="1" source="LM0uR2DWNkc85pl8UlRV-142" target="LM0uR2DWNkc85pl8UlRV-143" edge="1">
          <mxGeometry width="50" height="50" relative="1" as="geometry">
            <mxPoint x="670" y="1590" as="sourcePoint" />
            <mxPoint x="720" y="1540" as="targetPoint" />
          </mxGeometry>
        </mxCell>
        <mxCell id="LM0uR2DWNkc85pl8UlRV-147" value="数据检索" style="rounded=0;whiteSpace=wrap;html=1;" parent="1" vertex="1">
          <mxGeometry x="642" y="1270" width="80" height="30" as="geometry" />
        </mxCell>
        <mxCell id="LM0uR2DWNkc85pl8UlRV-148" value="模型分析" style="rounded=0;whiteSpace=wrap;html=1;" parent="1" vertex="1">
          <mxGeometry x="642" y="1328" width="80" height="30" as="geometry" />
        </mxCell>
        <mxCell id="LM0uR2DWNkc85pl8UlRV-149" value="数据操作" style="rounded=0;whiteSpace=wrap;html=1;" parent="1" vertex="1">
          <mxGeometry x="642" y="1387" width="80" height="30" as="geometry" />
        </mxCell>
        <mxCell id="LM0uR2DWNkc85pl8UlRV-150" value="数据管理" style="rounded=0;whiteSpace=wrap;html=1;" parent="1" vertex="1">
          <mxGeometry x="642" y="1445" width="80" height="30" as="geometry" />
        </mxCell>
        <mxCell id="LM0uR2DWNkc85pl8UlRV-152" value="" style="shape=flexArrow;endArrow=classic;html=1;entryX=0.5;entryY=1;entryDx=0;entryDy=0;" parent="1" target="LM0uR2DWNkc85pl8UlRV-15" edge="1">
          <mxGeometry width="50" height="50" relative="1" as="geometry">
            <mxPoint x="680" y="1220" as="sourcePoint" />
            <mxPoint x="110" y="1050" as="targetPoint" />
            <Array as="points">
              <mxPoint x="680" y="1190" />
              <mxPoint x="630" y="1190" />
              <mxPoint x="590" y="1190" />
              <mxPoint x="110" y="1190" />
            </Array>
          </mxGeometry>
        </mxCell>
        <mxCell id="LM0uR2DWNkc85pl8UlRV-154" value="汇聚" style="text;html=1;align=center;verticalAlign=middle;resizable=0;points=[];autosize=1;" parent="1" vertex="1">
          <mxGeometry x="327.5" y="1169" width="40" height="20" as="geometry" />
        </mxCell>
        <mxCell id="LM0uR2DWNkc85pl8UlRV-157" value="国标接口" style="rounded=0;whiteSpace=wrap;html=1;dashed=1;" parent="1" vertex="1">
          <mxGeometry x="50" y="1100" width="120" height="30" as="geometry" />
        </mxCell>
        <mxCell id="LM0uR2DWNkc85pl8UlRV-158" value="摄像机" style="rounded=0;whiteSpace=wrap;html=1;" parent="1" vertex="1">
          <mxGeometry x="210" y="1690" width="80" height="50" as="geometry" />
        </mxCell>
        <mxCell id="LM0uR2DWNkc85pl8UlRV-159" value="抓拍机" style="rounded=0;whiteSpace=wrap;html=1;" parent="1" vertex="1">
          <mxGeometry x="307.5" y="1690" width="80" height="50" as="geometry" />
        </mxCell>
        <mxCell id="LM0uR2DWNkc85pl8UlRV-163" value="" style="shape=flexArrow;endArrow=classic;html=1;exitX=0.5;exitY=0;exitDx=0;exitDy=0;entryX=0.5;entryY=1;entryDx=0;entryDy=0;" parent="1" source="LM0uR2DWNkc85pl8UlRV-162" target="LM0uR2DWNkc85pl8UlRV-122" edge="1">
          <mxGeometry width="50" height="50" relative="1" as="geometry">
            <mxPoint x="240" y="1670" as="sourcePoint" />
            <mxPoint x="290" y="1620" as="targetPoint" />
          </mxGeometry>
        </mxCell>
        <mxCell id="LM0uR2DWNkc85pl8UlRV-165" value="" style="endArrow=none;html=1;dashed=1;" parent="1" edge="1">
          <mxGeometry width="50" height="50" relative="1" as="geometry">
            <mxPoint x="890" y="1668" as="sourcePoint" />
            <mxPoint x="890" y="690" as="targetPoint" />
          </mxGeometry>
        </mxCell>
        <mxCell id="LM0uR2DWNkc85pl8UlRV-166" value="数据共享" style="rounded=0;whiteSpace=wrap;html=1;" parent="1" vertex="1">
          <mxGeometry x="930" y="720" width="100" height="326" as="geometry" />
        </mxCell>
        <mxCell id="LM0uR2DWNkc85pl8UlRV-171" value="" style="shape=flexArrow;endArrow=classic;html=1;exitX=1;exitY=0.5;exitDx=0;exitDy=0;" parent="1" target="LM0uR2DWNkc85pl8UlRV-166" edge="1">
          <mxGeometry width="50" height="50" relative="1" as="geometry">
            <mxPoint x="860" y="882" as="sourcePoint" />
            <mxPoint x="918" y="882" as="targetPoint" />
          </mxGeometry>
        </mxCell>
        <mxCell id="LM0uR2DWNkc85pl8UlRV-172" value="" style="endArrow=none;dashed=1;html=1;" parent="1" edge="1">
          <mxGeometry width="50" height="50" relative="1" as="geometry">
            <mxPoint x="1169.5" y="1150" as="sourcePoint" />
            <mxPoint x="1169.5" y="700" as="targetPoint" />
          </mxGeometry>
        </mxCell>
        <mxCell id="LM0uR2DWNkc85pl8UlRV-174" value="省厅" style="rounded=0;whiteSpace=wrap;html=1;" parent="1" vertex="1">
          <mxGeometry x="618" y="585" width="128" height="60" as="geometry" />
        </mxCell>
        <mxCell id="LM0uR2DWNkc85pl8UlRV-175" value="" style="shape=flexArrow;endArrow=classic;html=1;exitX=0.5;exitY=0;exitDx=0;exitDy=0;" parent="1" source="LM0uR2DWNkc85pl8UlRV-62" target="LM0uR2DWNkc85pl8UlRV-174" edge="1">
          <mxGeometry width="50" height="50" relative="1" as="geometry">
            <mxPoint x="752" y="895" as="sourcePoint" />
            <mxPoint x="810" y="895" as="targetPoint" />
          </mxGeometry>
        </mxCell>
        <mxCell id="LM0uR2DWNkc85pl8UlRV-176" value="" style="rounded=0;whiteSpace=wrap;html=1;" parent="1" vertex="1">
          <mxGeometry x="1110" y="719.5" width="120" height="330.5" as="geometry" />
        </mxCell>
        <mxCell id="LM0uR2DWNkc85pl8UlRV-177" value="数据共享网关" style="text;html=1;align=center;verticalAlign=middle;resizable=0;points=[];autosize=1;" parent="1" vertex="1">
          <mxGeometry x="1125" y="733" width="90" height="20" as="geometry" />
        </mxCell>
        <mxCell id="LM0uR2DWNkc85pl8UlRV-178" value="Kafka" style="rounded=0;whiteSpace=wrap;html=1;direction=east;" parent="1" vertex="1">
          <mxGeometry x="1120" y="970" width="100" height="40" as="geometry" />
        </mxCell>
        <mxCell id="LM0uR2DWNkc85pl8UlRV-179" value="FTP" style="rounded=0;whiteSpace=wrap;html=1;direction=east;" parent="1" vertex="1">
          <mxGeometry x="1120" y="780" width="100" height="40" as="geometry" />
        </mxCell>
        <mxCell id="LM0uR2DWNkc85pl8UlRV-180" value="平台共享" style="rounded=0;whiteSpace=wrap;html=1;direction=east;" parent="1" vertex="1">
          <mxGeometry x="1120" y="874.5" width="100" height="40" as="geometry" />
        </mxCell>
        <mxCell id="LM0uR2DWNkc85pl8UlRV-181" value="设备" style="rounded=0;whiteSpace=wrap;html=1;" parent="1" vertex="1">
          <mxGeometry x="-130" y="710" width="100" height="420" as="geometry" />
        </mxCell>
      </root>
    </mxGraphModel>
  </diagram>
</mxfile>
